<?xml version="1.0" encoding="UTF-8" standalone="no"?>
<!-- Created with Inkscape (http://www.inkscape.org/) -->

<svg
   xmlns:dc="http://purl.org/dc/elements/1.1/"
   xmlns:cc="http://creativecommons.org/ns#"
   xmlns:rdf="http://www.w3.org/1999/02/22-rdf-syntax-ns#"
   xmlns:svg="http://www.w3.org/2000/svg"
   xmlns="http://www.w3.org/2000/svg"
   xmlns:sodipodi="http://sodipodi.sourceforge.net/DTD/sodipodi-0.dtd"
   xmlns:inkscape="http://www.inkscape.org/namespaces/inkscape"
   version="1.1"
   id="svg3442"
   width="151.67999"
   height="123.84"
   viewBox="0 0 151.67999 123.84"
   sodipodi:docname="beermug.svg"
   inkscape:version="0.92.3 (2405546, 2018-03-11)">
  <metadata
     id="metadata3448">
    <rdf:RDF>
      <cc:Work
         rdf:about="">
        <dc:format>image/svg+xml</dc:format>
        <dc:type
           rdf:resource="http://purl.org/dc/dcmitype/StillImage" />
        <dc:title></dc:title>
      </cc:Work>
    </rdf:RDF>
  </metadata>
  <defs
     id="defs3446" />
  <sodipodi:namedview
     pagecolor="#ffffff"
     bordercolor="#666666"
     borderopacity="1"
     objecttolerance="10"
     gridtolerance="10"
     guidetolerance="10"
     inkscape:pageopacity="0"
     inkscape:pageshadow="2"
     inkscape:window-width="1920"
     inkscape:window-height="1051"
     id="namedview3444"
     showgrid="false"
     inkscape:zoom="5.3900906"
     inkscape:cx="25.424877"
     inkscape:cy="85.688273"
     inkscape:window-x="-9"
     inkscape:window-y="-9"
     inkscape:window-maximized="1"
     inkscape:current-layer="g4013" />
  <g
     id="g4013"
     transform="translate(-2.597356,-3.3394613)">
    <path
       style="fill:#0d0d0d;stroke-width:0.31999999"
       d="m 56.284496,112.16064 c -12.709263,-0.97917 -18.017387,-2.98848 -19.964686,-7.55732 -1.856317,-4.35537 -1.838131,-9.501506 0.161155,-45.603236 0.284857,-5.14376 0.440681,-9.553577 0.346275,-9.799593 -0.0944,-0.246019 -0.671017,-0.540989 -1.281363,-0.655491 -3.023389,-0.567191 -5.618944,-4.187706 -5.910233,-8.244132 -0.215181,-2.996522 0.08644,-4.165556 1.553641,-6.021706 l 1.280896,-1.620458 -0.360416,-1.987576 c -0.466989,-2.575285 -0.170323,-4.80508 0.956215,-7.187148 0.991081,-2.095636 2.097699,-3.06823 4.445554,-3.907141 1.486848,-0.531266 1.493741,-0.540601 1.682772,-2.278959 0.341852,-3.143728 1.728303,-4.840045 4.937202,-6.040648 2.486426,-0.930291 4.88864,-0.873234 7.2164,0.171403 l 1.86344,0.836262 0.896576,-0.705331 c 1.570969,-1.235877 2.919648,-1.6071944 5.837571,-1.6071944 3.262531,0 5.478294,0.5799234 7.323865,1.9168464 0.731276,0.529735 1.388371,0.963154 1.460208,0.963154 0.07184,0 0.860915,-0.491456 1.753507,-1.092125 2.274416,-1.53057 3.586444,-1.8914224 6.245218,-1.717648 5.705091,0.372878 11.162963,5.453314 11.956627,11.129772 l 0.24608,1.76 2.716746,0.17554 c 1.574228,0.101717 3.120468,0.393028 3.676748,0.692698 2.73702,1.474454 4.42407,4.682869 5.164366,9.821551 0.2976,2.065747 0.66823,3.530922 0.94871,3.750384 0.25317,0.198093 1.05336,0.455005 1.7782,0.570912 0.72485,0.115907 2.38183,0.702304 3.68219,1.303111 8.11784,3.750672 11.59008,14.473895 8.60217,26.565805 -1.6839,6.814624 -4.41865,12.079427 -8.43618,16.240867 -3.47526,3.599754 -6.07542,4.940125 -10.299456,5.309351 -2.15401,0.188281 -2.39198,0.275382 -2.32174,0.849782 0.77571,6.343732 0.24052,10.344902 -1.80755,13.513668 -1.454408,2.25025 -2.957718,3.54654 -5.64999,4.87194 -4.746716,2.3368 -10.459986,2.83478 -26.201012,2.28371 -5.269165,-0.18447 -9.649164,-0.26653 -9.733334,-0.18236 -0.305965,0.30596 0.196832,0.44752 3.961568,1.11536 7.839958,1.39075 19.640699,1.18982 28.780299,-0.49006 2.281532,-0.41934 4.202915,-0.70777 4.269737,-0.64095 0.577821,0.57782 -5.351974,2.05359 -11.63062,2.89456 -3.65216,0.48917 -16.594329,0.87614 -20.147356,0.6024 z m 17.633225,-4.59944 c 8.749657,-0.48883 13.302364,-1.97482 14.757669,-4.81686 1.218051,-2.37872 1.456396,-4.888296 1.245303,-13.111968 -0.287754,-11.21006 -1.472314,-30.40927 -2.36673,-38.35975 l -0.229469,-2.03975 -2.526057,-1.372532 c -1.389334,-0.754892 -2.712534,-1.300976 -2.940448,-1.213516 -0.227913,0.08746 -0.505142,0.57222 -0.616064,1.077254 -0.442851,2.016288 -2.388275,3.508294 -4.574454,3.508294 h -1.248806 l -0.178535,3.76 c -0.19574,4.122352 -0.49423,5.23752 -1.755862,6.56 -0.682057,0.714954 -1.120275,0.88 -2.336486,0.88 -3.52176,0 -4.42375,-2.227213 -5.280573,-13.038893 l -0.209129,-2.638892 -1.746518,0.20527 c -1.04848,0.123229 -2.427165,0.04198 -3.449527,-0.203277 l -1.703011,-0.408547 -1.182134,1.308483 c -1.751341,1.938525 -4.001843,2.704119 -8.012393,2.725715 -2.766694,0.01491 -3.48505,-0.0997 -5.305107,-0.846313 -1.157808,-0.474951 -2.252768,-0.863546 -2.433241,-0.863546 -0.370391,0 -0.425831,0.878474 -1.544868,24.48 -0.433929,9.152 -0.790723,19.174702 -0.792873,22.272682 -0.0037,5.324696 0.03569,5.691436 0.720387,6.707456 2.262342,3.35709 8.112886,4.90395 20.395701,5.39257 3.432,0.13652 6.672,0.26528 7.2,0.28612 0.528,0.0208 3.27895,-0.0917 6.113225,-0.25 z m -14.683529,-4.06505 c -6.870729,-0.11466 -6.97398,-0.12652 -7.227625,-0.83005 -0.141526,-0.39255 -0.666704,-5.213726 -1.167062,-10.713728 -1.226109,-13.477536 -1.613111,-13.329574 -1.929095,0.737552 -0.102572,4.56635 -0.252105,8.626446 -0.3323,9.022446 -0.117431,0.57988 -0.361325,0.72 -1.253235,0.72 -1.423024,0 -3.563296,-0.85534 -3.865623,-1.54487 -0.610275,-1.391866 -0.51696,-18.260865 0.172628,-31.206001 0.385836,-7.243021 0.802684,-13.745127 0.926332,-14.449127 l 0.224816,-1.28 4.470733,-0.206304 c 5.028288,-0.232032 7.444905,-0.87936 9.525833,-2.551641 1.085472,-0.872307 1.345014,-0.947831 2.400966,-0.69864 l 1.183936,0.279395 0.231302,2.548595 c 0.461943,5.089904 1.531952,8.295107 3.52512,10.559466 0.734295,0.834201 1.804867,1.713021 2.37905,1.952931 1.344947,0.561955 3.998575,0.559136 5.314806,-0.0056 2.504214,-1.074531 4.387155,-4.33543 4.638499,-8.033002 0.08394,-1.234835 0.3143,-2.447465 0.51192,-2.694736 0.197616,-0.247267 1.286118,-1.151308 2.418889,-2.008982 1.653398,-1.251859 2.136003,-1.478742 2.447037,-1.150419 0.237603,0.250809 0.58608,2.946041 0.901046,6.968982 0.942477,12.037888 1.216704,18.628618 1.264704,30.395677 l 0.04762,11.675676 -1.99335,0.71235 c -4.561913,1.63027 -10.253468,2.0431 -24.816952,1.80007 z m 1.952749,-45.148478 c 0.137392,-0.963175 -0.844525,-1.345063 -1.423296,-0.553546 -0.323782,0.442794 -0.339194,0.69311 -0.06315,1.025715 0.525865,0.633629 1.366816,0.366503 1.486451,-0.472169 z m -11.652499,-1.12554 c 0.241492,-0.382841 0.22482,-0.642995 -0.05942,-0.927238 -0.531536,-0.531536 -1.525967,0.41871 -1.234111,1.179277 0.237632,0.619257 0.814886,0.506784 1.293535,-0.252039 z m 9.407366,-0.83064 c -0.109741,-0.946301 -0.816873,-1.109718 -1.323878,-0.305942 -0.242669,0.384707 -0.223587,0.669011 0.06852,1.020979 0.598266,0.720864 1.370845,0.280816 1.25536,-0.715037 z m 40.226156,23.639197 c 4.016836,-1.944518 8.651916,-8.939814 9.935206,-14.994304 0.58205,-2.746051 0.58494,-8.671075 0.005,-10.84849 -0.94394,-3.545932 -3.29371,-6.236857 -6.49059,-7.432963 -2.39585,-0.8964 -2.799556,-0.828976 -4.507096,0.752739 -1.81163,1.678141 -2.55565,2.09058 -4.32118,2.395373 -1.613298,0.278519 -1.53465,-1.043869 -0.74524,12.529328 0.72982,12.548423 1.26368,17.290311 2.00789,17.834493 0.81628,0.596877 2.60715,0.494109 4.11572,-0.236176 z M 71.878188,50.672372 c 0.129943,-8.371443 0.382407,-10 1.550234,-10 0.842976,0 1.562339,1.24073 2.27903,3.930775 0.64968,2.438534 1.302707,3.471561 1.849123,2.925145 0.17416,-0.17416 0.725382,-1.454723 1.224941,-2.845702 0.499561,-1.390976 1.126758,-2.666855 1.393772,-2.835283 0.359712,-0.2269 1.284432,0.170537 3.569427,1.534115 3.834119,2.288022 5.184845,2.775517 8.231091,2.970717 2.264008,0.145072 2.474098,0.101676 3.439228,-0.710429 3.06209,-2.576576 3.05,-12.099153 -0.0215,-16.935069 -1.73467,-2.731177 -3.849818,-3.216218 -6.62904,-1.520159 -0.616,0.375924 -1.270713,0.684035 -1.454921,0.684693 -0.184208,6.72e-4 -0.943107,-1.906804 -1.686445,-4.238804 -2.42776,-7.616368 -4.516547,-10.166004 -8.538291,-10.42209 -3.006735,-0.191454 -5.29589,1.238859 -7.460565,4.661519 -0.997309,1.576886 -1.508224,1.716662 -1.756602,0.480572 -0.554666,-2.760397 -3.903811,-5.012921 -7.404451,-4.979988 -3.072412,0.02891 -4.696582,0.963697 -6.814623,3.922167 -0.05598,0.0782 -0.555623,-0.408399 -1.110307,-1.081328 -1.22265,-1.483285 -3.13265,-2.404365 -5.00543,-2.413823 -3.26625,-0.0165 -4.716438,1.77261 -5.094006,6.284503 -0.216426,2.586227 -0.291408,2.819388 -0.875527,2.722449 -0.351357,-0.05831 -1.070829,-0.177187 -1.598829,-0.264171 -2.3183,-0.381923 -4.639999,2.668791 -4.639999,6.096963 0,1.892257 0.969123,4.673227 1.628547,4.673227 0.652112,0 0.2348,0.904839 -0.502678,1.089933 -1.364912,0.342573 -2.92776,1.985299 -3.361043,3.532829 -1.053181,3.761601 1.283763,7.198142 5.081762,7.472865 1.615815,0.116877 1.940739,0.03372 2.846643,-0.728551 l 1.022631,-0.860486 1.327097,1.135943 c 3.73295,3.19527 10.128259,2.666502 12.473334,-1.031296 0.508038,-0.801095 0.92591,-1.680343 0.928605,-1.953885 0.0026,-0.273543 0.139881,-0.710823 0.304854,-0.971732 0.25183,-0.398268 0.443574,-0.336812 1.195101,0.383028 1.095308,1.049126 2.940214,1.851353 4.257615,1.851353 1.385514,0 3.282259,-1.051776 4.455619,-2.470713 0.762442,-0.922016 1.064576,-1.105802 1.271856,-0.773658 0.149523,0.239594 0.370179,2.327594 0.490339,4.64 0.376356,7.242566 1.634391,13.964371 2.613533,13.964371 0.301917,0 0.426371,-1.895961 0.519875,-7.92 z m 38.966302,-4.425769 c 0,-0.527095 -2.46555,-3.793696 -3.40317,-4.508855 -1.2769,-0.973936 -3.95683,-1.439142 -3.95683,-0.68686 0,0.661763 1.59858,2.101628 4.25611,3.833539 2.13792,1.39328 3.10389,1.817206 3.10389,1.362176 z"
       id="path4015"
       inkscape:connector-curvature="0" />
  </g>
</svg>
