<?xml version="1.0" encoding="UTF-8" standalone="no"?>
<!-- Created with Inkscape (http://www.inkscape.org/) -->

<svg
   version="1.1"
   id="svg3442"
   width="151.67999"
   height="123.84"
   viewBox="0 0 151.67999 123.84"
   sodipodi:docname="brew-mark.svg"
   inkscape:version="1.1.1 (3bf5ae0d25, 2021-09-20)"
   xmlns:inkscape="http://www.inkscape.org/namespaces/inkscape"
   xmlns:sodipodi="http://sodipodi.sourceforge.net/DTD/sodipodi-0.dtd"
   xmlns="http://www.w3.org/2000/svg"
   xmlns:svg="http://www.w3.org/2000/svg"
   xmlns:rdf="http://www.w3.org/1999/02/22-rdf-syntax-ns#"
   xmlns:cc="http://creativecommons.org/ns#"
   xmlns:dc="http://purl.org/dc/elements/1.1/">
  <metadata
     id="metadata3448">
    <rdf:RDF>
      <cc:Work
         rdf:about="">
        <dc:format>image/svg+xml</dc:format>
        <dc:type
           rdf:resource="http://purl.org/dc/dcmitype/StillImage" />
      </cc:Work>
    </rdf:RDF>
  </metadata>
  <defs
     id="defs3446" />
  <sodipodi:namedview
     pagecolor="#ffffff"
     bordercolor="#666666"
     borderopacity="1"
     objecttolerance="10"
     gridtolerance="10"
     guidetolerance="10"
     inkscape:pageopacity="0"
     inkscape:pageshadow="2"
     inkscape:window-width="1920"
     inkscape:window-height="948"
     id="namedview3444"
     showgrid="false"
     inkscape:zoom="5.3900906"
     inkscape:cx="95.916755"
     inkscape:cy="66.418179"
     inkscape:window-x="0"
     inkscape:window-y="32"
     inkscape:window-maximized="1"
     inkscape:current-layer="g4013"
     inkscape:pagecheckerboard="0"
     showguides="false" />
  <g
     id="g4013"
     transform="translate(-2.597356,-3.3394613)">
    <circle
       style="fill:#ffd42a"
       id="path30"
       cx="68.9655"
       cy="61.787949"
       r="60.229771" />
    <path
       style="fill:#000002;fill-opacity:1;stroke-width:0.264224"
       d="m 61.273101,103.50653 c -10.494041,-0.80851 -14.87696,-2.46759 -16.484845,-6.240085 -1.532762,-3.59623 -1.517746,-7.845395 0.133065,-37.654601 0.235207,-4.247204 0.363871,-7.888391 0.28592,-8.091526 -0.07795,-0.203138 -0.554059,-0.446695 -1.058022,-0.541239 -2.496413,-0.46833 -4.639563,-3.45779 -4.880081,-6.807182 -0.177675,-2.474228 0.07137,-3.4395 1.282842,-4.972123 l 1.057636,-1.338013 -0.297596,-1.641142 c -0.385592,-2.126413 -0.140635,-3.967555 0.789547,-5.934429 0.818336,-1.730368 1.732071,-2.533439 3.670695,-3.226128 1.227691,-0.438666 1.233383,-0.446374 1.389465,-1.881737 0.282268,-2.595776 1.427061,-3.996426 4.076649,-4.987764 2.053043,-0.768141 4.036551,-0.721029 5.958583,0.141528 l 1.538643,0.690501 0.740303,-0.582392 c 1.297149,-1.020463 2.410754,-1.32706 4.820084,-1.32706 2.693872,0 4.523428,0.478843 6.047316,1.58274 0.603815,0.437402 1.146379,0.795277 1.205694,0.795277 0.05932,0 0.710858,-0.405796 1.447871,-0.901768 1.877986,-1.263792 2.961328,-1.561748 5.156678,-1.418263 4.710695,0.307886 9.217261,4.502803 9.87259,9.189855 l 0.203188,1.453233 2.243218,0.144943 c 1.29984,0.08399 2.576571,0.324524 3.035891,0.571961 2.25996,1.217457 3.652957,3.866646 4.264215,8.109657 0.245728,1.705688 0.551758,2.915483 0.78335,3.096693 0.209043,0.163565 0.86976,0.375697 1.46826,0.471402 0.59851,0.0957 1.96668,0.579892 3.04039,1.075979 6.7029,3.096931 9.56993,11.951098 7.10281,21.935391 -1.3904,5.626836 -3.64848,9.973985 -6.96576,13.410087 -2.86952,2.972317 -5.016472,4.079062 -8.504256,4.383932 -1.778567,0.155464 -1.975059,0.227383 -1.917062,0.701665 0.640504,5.238021 0.198598,8.541788 -1.492494,11.158238 -1.200905,1.858032 -2.442188,2.928379 -4.665198,4.022762 -3.919364,1.929498 -8.636813,2.340678 -21.634181,1.885658 -4.350751,-0.15232 -7.967317,-0.22007 -8.036816,-0.15057 -0.252635,0.25263 0.162524,0.36951 3.271068,0.92095 6.473455,1.14834 16.217329,0.98243 23.763899,-0.40464 1.883861,-0.34625 3.470347,-0.58441 3.525522,-0.52924 0.477107,0.47711 -4.419126,1.69565 -9.603405,2.39004 -3.015589,0.40391 -13.701941,0.72343 -16.635676,0.49741 z m 14.559757,-3.797763 c 7.224594,-0.403627 10.983765,-1.63061 12.185411,-3.977283 1.005745,-1.964109 1.202546,-4.036266 1.028247,-10.826553 -0.237599,-9.256149 -1.21569,-25.108941 -1.95421,-31.673654 l -0.189472,-1.684222 -2.085766,-1.1333 c -1.147174,-0.623314 -2.23974,-1.074216 -2.427929,-1.002 -0.188187,0.07221 -0.417096,0.472482 -0.508684,0.889488 -0.365662,1.66485 -1.971999,2.8968 -3.777127,2.8968 h -1.03114 l -0.147416,3.104632 c -0.161623,3.403827 -0.408086,4.324622 -1.449816,5.416594 -0.563174,0.590337 -0.925011,0.726616 -1.929237,0.726616 -2.907918,0 -3.652691,-1.83901 -4.36017,-10.766217 l -0.172678,-2.178933 -1.4421,0.169491 c -0.86573,0.10175 -2.004111,0.03466 -2.848275,-0.167846 l -1.406177,-0.337337 -0.976088,1.080415 c -1.446083,1.60064 -3.304323,2.232791 -6.615835,2.250623 -2.284459,0.01231 -2.877606,-0.08232 -4.380428,-0.698801 -0.956002,-0.392167 -1.860111,-0.71303 -2.009127,-0.71303 -0.305832,0 -0.351609,0.725356 -1.275598,20.213141 -0.358295,7.556808 -0.6529,15.832556 -0.654675,18.390558 -0.0031,4.396602 0.02947,4.699419 0.594823,5.538347 1.868016,2.77195 6.698812,4.049193 16.840735,4.452646 2.833803,0.112725 5.509072,0.219042 5.945041,0.23625 0.43597,0.01717 2.70743,-0.07572 5.047691,-0.206425 z M 63.708665,96.352254 c -5.673162,-0.09467 -5.758416,-0.104468 -5.967851,-0.685372 -0.116858,-0.324129 -0.550498,-4.304974 -0.963643,-8.846327 -1.012399,-11.128404 -1.331946,-11.006232 -1.592854,0.608997 -0.08469,3.770436 -0.208164,7.122857 -0.274381,7.449835 -0.09696,0.478807 -0.298346,0.594504 -1.034796,0.594504 -1.174991,0 -2.942214,-0.706255 -3.191846,-1.2756 -0.503904,-1.149263 -0.426854,-15.077999 0.142539,-25.7668 0.318585,-5.980564 0.662777,-11.349355 0.764873,-11.930648 l 0.18563,-1.056896 3.691486,-0.170345 c 4.151858,-0.191589 6.147259,-0.726088 7.865482,-2.106891 0.896274,-0.720264 1.110578,-0.782624 1.982478,-0.576867 l 0.977576,0.230697 0.190986,2.104375 c 0.381427,4.202735 1.264933,6.849272 2.910693,8.718953 0.606307,0.6888 1.490279,1.414442 1.964382,1.612536 1.110523,0.464006 3.301624,0.461679 4.388436,-0.0046 2.06773,-0.887241 3.622475,-3.579765 3.83001,-6.632851 0.06931,-1.019604 0.259517,-2.020873 0.422692,-2.225045 0.163172,-0.204168 1.061948,-0.950635 1.997277,-1.658816 1.365211,-1.033661 1.763698,-1.220998 2.020519,-0.949902 0.196189,0.207093 0.483927,2.432547 0.743994,5.75429 0.778204,9.939687 1.004633,15.381654 1.044266,25.097717 l 0.03932,9.640607 -1.645909,0.588188 c -3.766773,1.346114 -8.466291,1.686988 -20.491363,1.486318 z m 1.612386,-37.279107 c 0.113444,-0.795294 -0.697325,-1.110619 -1.175216,-0.457063 -0.267347,0.365615 -0.280073,0.572301 -0.05214,0.846933 0.434207,0.523188 1.12858,0.302622 1.227363,-0.38987 z M 55.69958,58.143789 c 0.1994,-0.316112 0.185634,-0.530921 -0.04906,-0.765621 -0.43889,-0.438889 -1.259991,0.345729 -1.019006,0.973729 0.196213,0.511321 0.672852,0.418452 1.068072,-0.208108 z m 7.767664,-0.68586 c -0.09061,-0.781361 -0.674492,-0.916294 -1.093126,-0.252616 -0.200372,0.317652 -0.184616,0.552402 0.05658,0.843022 0.493988,0.595218 1.131907,0.23187 1.036551,-0.590406 z m 33.214747,19.51889 c 3.316697,-1.605589 7.143879,-7.381606 8.203499,-12.3808 0.4806,-2.267415 0.48298,-7.159708 0.004,-8.9576 -0.77942,-2.927877 -2.71962,-5.149775 -5.359285,-6.1374 -1.978254,-0.740157 -2.311589,-0.684485 -3.721506,0.621537 -1.495864,1.385642 -2.110202,1.726193 -3.568,1.97786 -1.332101,0.229973 -1.267161,-0.861923 -0.615345,10.345469 0.602612,10.361235 1.043421,14.276613 1.657915,14.725944 0.674003,0.492842 2.152724,0.407986 3.398352,-0.19501 z M 74.148816,52.73565 c 0.107294,-6.912302 0.315753,-8.257002 1.280028,-8.257002 0.696046,0 1.290024,1.024471 1.881796,3.245642 0.536441,2.013498 1.075645,2.866469 1.526821,2.415293 0.143804,-0.143804 0.598948,-1.201165 1.011434,-2.349697 0.412488,-1.148529 0.930364,-2.202023 1.150838,-2.341094 0.297014,-0.187351 1.060556,0.140813 2.947276,1.26672 3.165833,1.88922 4.281128,2.291744 6.796414,2.452921 1.869392,0.119786 2.042863,0.08395 2.839771,-0.586601 2.52837,-2.12748 2.518387,-9.990273 -0.01775,-13.98329 -1.432318,-2.255134 -3.178796,-2.655632 -5.4736,-1.255196 -0.508631,0.310401 -1.049228,0.564808 -1.201329,0.565351 -0.1521,5.55e-4 -0.778723,-1.574448 -1.392498,-3.499981 -2.004602,-6.288837 -3.729313,-8.394072 -7.050068,-8.605522 -2.482662,-0.158083 -4.372818,1.022926 -6.16019,3.849017 -0.823479,1.302035 -1.245341,1.417449 -1.450427,0.396809 -0.457988,-2.279261 -3.223378,-4.13917 -6.113857,-4.111977 -2.536891,0.02387 -3.877968,0.795724 -5.626835,3.238534 -0.04622,0.06457 -0.458778,-0.337215 -0.916781,-0.892853 -1.009542,-1.224749 -2.58663,-1.985285 -4.132985,-1.993094 -2.696943,-0.01362 -3.894363,1.463644 -4.206121,5.189115 -0.178703,2.135448 -0.240616,2.32797 -0.722923,2.247927 -0.290116,-0.04815 -0.884184,-0.146303 -1.320154,-0.218126 -1.91422,-0.315354 -3.831248,2.203621 -3.831248,5.034264 0,1.562437 0.800205,3.858684 1.344692,3.858684 0.538449,0 0.193874,0.747126 -0.415062,0.899958 -1.127008,0.282863 -2.417452,1.639262 -2.775213,2.917058 -0.869612,3.105954 1.060003,5.943507 4.196011,6.170346 1.334179,0.09651 1.602469,0.02784 2.350474,-0.601565 l 0.844387,-0.710503 1.095784,0.937948 c 3.082298,2.638335 8.362906,2.201731 10.299235,-0.851541 0.419487,-0.661465 0.764524,-1.38746 0.766749,-1.613324 0.0021,-0.225864 0.1155,-0.586926 0.251718,-0.802359 0.207936,-0.32885 0.366259,-0.278106 0.986795,0.316266 0.904396,0.866264 2.427735,1.528663 3.515514,1.528663 1.144019,0 2.710162,-0.868452 3.679005,-2.040068 0.629549,-0.761309 0.879021,-0.913061 1.050172,-0.63881 0.123461,0.197833 0.305657,1.921895 0.404873,3.831249 0.310757,5.980188 1.349517,11.530384 2.157995,11.530384 0.249293,0 0.352054,-1.565495 0.429261,-6.539546 z M 106.3233,49.081292 c 0,-0.435222 -2.03581,-3.132456 -2.81,-3.722962 -1.05434,-0.80418 -3.26716,-1.1883 -3.26716,-0.567141 0,0.546418 1.31995,1.735315 3.51427,3.165354 1.76528,1.150432 2.56289,1.500467 2.56289,1.124749 z"
       id="path4015"
       inkscape:connector-curvature="0" />
    <path
       style="fill:#ffffff;fill-opacity:1;stroke-width:0.153189"
       d="m 77.630651,21.877985 c -2.666968,-0.08753 -4.428915,2.331963 -5.781371,4.303342 -0.180309,0.298951 -0.758524,0.849337 -0.853309,0.168447 -0.728014,-2.897708 -3.825791,-4.642657 -6.696578,-4.374275 -2.075926,-0.0825 -3.881186,1.219892 -4.993658,2.884365 -0.483613,0.683879 -1.011507,-0.773959 -1.565661,-1.040095 -1.651812,-1.61518 -4.63206,-2.219668 -6.471618,-0.603479 -1.585886,1.732128 -1.211411,4.296923 -1.849931,6.369293 -1.151722,0.139272 -2.549643,-0.524594 -3.489827,0.499958 -1.444147,1.190194 -2.123657,3.086311 -1.875961,4.926567 0.0091,1.380362 0.403904,2.792667 1.434048,3.745939 -0.557011,0.671819 -1.655598,0.839259 -2.23021,1.581851 -2.287398,2.200574 -1.547273,6.663231 1.552231,7.717174 1.365008,0.497359 3.109471,0.701939 4.186954,-0.496667 0.562316,-0.763585 1.150096,0.187283 1.653958,0.49188 2.795791,2.285309 7.502179,2.43833 9.936167,-0.453054 0.721654,-0.817697 1.006554,-1.902586 1.435091,-2.850075 0.83166,-0.140403 1.333864,0.964367 2.092879,1.191699 1.772986,1.082723 4.144593,0.628153 5.512694,-0.900881 0.459965,-0.342117 0.890563,-1.007635 1.458283,-1.074713 0.677598,4.24371 0.568406,8.610953 1.565694,12.817574 0.272935,0.831647 0.326476,1.99227 1.064243,2.52821 0.493868,-0.65745 0.166383,-1.683521 0.324882,-2.47246 0.23324,-3.848648 0.01246,-7.746784 0.648703,-11.558356 0.03641,-0.889428 1.209434,-1.018631 1.510643,-0.218413 1.044571,1.575881 1.000205,3.717074 2.264617,5.138998 0.667255,0.08261 0.697973,-1.018625 1.022354,-1.432554 0.540618,-1.142965 0.850404,-2.432688 1.653957,-3.429387 3.230352,1.396806 6.15307,3.921382 9.852727,3.864867 1.151183,0.150424 2.429085,-0.05769 3.065677,-1.145173 1.754194,-2.376797 1.266593,-5.472776 1.226406,-8.229397 -0.206672,-2.449026 -1.128266,-5.010561 -2.991365,-6.67537 -1.528538,-1.232729 -3.51881,-0.301663 -4.982219,0.537356 -0.822348,0.407757 -0.820711,-0.971042 -1.11657,-1.415367 -1.241098,-3.269753 -2.030205,-7.012398 -4.744089,-9.435888 -1.067531,-0.936498 -2.46581,-1.039969 -3.819841,-0.961916 z"
       id="path6003" />
  </g>
</svg>
