<?xml version="1.0" encoding="UTF-8" standalone="no"?>
<svg
   version="1.1"
   x="0px"
   y="0px"
   viewBox="0 0 100 100"
   id="svg6"
   sodipodi:docname="map-mark.svg"
   inkscape:version="1.1.1 (3bf5ae0d25, 2021-09-20)"
   xmlns:inkscape="http://www.inkscape.org/namespaces/inkscape"
   xmlns:sodipodi="http://sodipodi.sourceforge.net/DTD/sodipodi-0.dtd"
   xmlns="http://www.w3.org/2000/svg"
   xmlns:svg="http://www.w3.org/2000/svg">
  <defs
     id="defs10" />
  <sodipodi:namedview
     id="namedview8"
     pagecolor="#ffffff"
     bordercolor="#666666"
     borderopacity="1.0"
     inkscape:pageshadow="2"
     inkscape:pageopacity="0.0"
     inkscape:pagecheckerboard="0"
     showgrid="false"
     inkscape:zoom="22.61442"
     inkscape:cx="47.226504"
     inkscape:cy="31.882312"
     inkscape:window-width="1920"
     inkscape:window-height="948"
     inkscape:window-x="0"
     inkscape:window-y="32"
     inkscape:window-maximized="1"
     inkscape:current-layer="g4" />
  <g
     transform="translate(0,-952.36218)"
     id="g4">
    <path
       d="M 50 7 C 34.547861 7 22 19.54786 22 35 C 22 40.57041 23.638151 45.76226 26.4375 50.125 L 41.8125 74.09375 C 40.231164 74.53008 38.773343 75.075874 37.5 75.75 C 34.237716 77.4771 32 80.0043 32 83 C 32 85.9957 34.237716 88.5229 37.5 90.25 C 40.762284 91.9771 45.162521 93 50 93 C 54.837479 93 59.237716 91.9771 62.5 90.25 C 65.762284 88.5229 68 85.9957 68 83 C 68 80.0043 65.762284 77.4771 62.5 75.75 C 61.230445 75.077879 59.763012 74.531175 58.1875 74.09375 L 73.5625 50.125 C 76.361854 45.76236 78 40.57042 78 35 C 78 19.54786 65.452139 7 50 7 z M 50 9 C 64.371261 9 76 20.62874 76 35 C 76 40.17818 74.476246 44.9774 71.875 49.03125 L 50 83.125 L 28.125 49.03125 C 25.523749 44.9773 24 40.17819 24 35 C 24 20.62874 35.628739 9 50 9 z M 50 24 C 43.9367 24 39 28.9368 39 35 C 39 41.0632 43.9367 46 50 46 C 56.0633 46 61 41.0632 61 35 C 61 28.9368 56.0633 24 50 24 z M 50 26 C 54.9824 26 59 30.0176 59 35 C 59 39.9824 54.9824 44 50 44 C 45.0176 44 41 39.9824 41 35 C 41 30.0176 45.0176 26 50 26 z M 42.96875 75.875 L 49.15625 85.53125 A 1.0001 1.0001 0 0 0 50.84375 85.53125 L 57.03125 75.875 C 58.732044 76.302949 60.27775 76.851118 61.5625 77.53125 C 64.453006 79.06155 66 81.0251 66 83 C 66 84.9748 64.453006 86.93855 61.5625 88.46875 C 58.671994 89.99905 54.55136 91 50 91 C 45.44864 91 41.328006 89.99905 38.4375 88.46875 C 35.546994 86.93855 34 84.9748 34 83 C 34 81.0251 35.546994 79.06155 38.4375 77.53125 C 39.723065 76.850687 41.266195 76.303105 42.96875 75.875 z "
       id="path2"
       transform="translate(0,952.36218)" />
    <path
       style="fill:#ffcc00;stroke-width:0.134139"
       d="M 49.734125,82.740783 C 48.916024,81.573472 27.743039,48.463159 27.179091,47.469221 26.807378,46.814092 26.201694,45.523544 25.833125,44.601336 22.075281,35.198707 24.146552,24.42719 31.118415,17.115526 34.446038,13.625717 38.563794,11.143884 43.04261,9.9286335 49.478146,8.1824605 56.0263,8.8618857 61.905313,11.885795 c 5.060304,2.602801 8.967309,6.597312 11.465925,11.722732 1.956768,4.013919 2.72343,7.6571 2.580443,12.262249 -0.123727,3.984861 -0.905532,7.140436 -2.628718,10.610217 -0.477464,0.961413 -4.986412,8.125633 -11.945909,18.980719 -6.148431,9.590026 -11.223558,17.486333 -11.278061,17.547349 -0.0545,0.06102 -0.218694,-0.05971 -0.364868,-0.268278 z m 3.586269,-37.31437 c 2.89243,-0.944551 5.175891,-2.90816 6.497094,-5.587024 2.670287,-5.414259 0.450064,-11.969951 -4.954491,-14.629218 -1.599818,-0.787178 -2.505495,-1.014036 -4.374664,-1.095783 -3.301708,-0.1444 -6.069374,0.945197 -8.318387,3.274846 -2.129777,2.206142 -3.083661,4.588436 -3.079976,7.692154 0.0064,5.38507 3.722674,9.706686 9.267268,10.776784 0.184442,0.0356 1.089882,0.04665 2.012091,0.02455 1.445464,-0.03463 1.852512,-0.09757 2.951065,-0.456312 z"
       id="path7957"
       transform="translate(0,952.36218)" />
    <path
       style="fill:#d38d5f;stroke-width:0.134139"
       d="m 46.747566,90.863923 c -6.347969,-0.724535 -11.501422,-3.424361 -12.547365,-6.573399 -0.314708,-0.947498 -0.214987,-2.241776 0.242105,-3.142262 0.96811,-1.907207 3.452244,-3.686381 6.613431,-4.736636 2.095465,-0.696187 1.528333,-1.176282 5.004576,4.236532 1.669081,2.598905 3.139736,4.847416 3.268122,4.996691 0.294726,0.342675 1.052545,0.363412 1.339889,0.03667 0.113538,-0.129109 1.577013,-2.37762 3.252164,-4.996691 1.675151,-2.619071 3.066398,-4.782999 3.091659,-4.808728 0.02526,-0.02573 0.668746,0.145635 1.429968,0.38081 3.562515,1.100622 6.084127,2.844092 7.101042,4.909739 0.875122,1.777628 0.53616,3.445645 -1.047889,5.156606 -2.092756,2.260427 -6.163989,3.923893 -10.98319,4.487626 -1.848527,0.216234 -5.110627,0.241814 -6.764512,0.05305 z"
       id="path8070"
       transform="translate(0,952.36218)" />
    <path
       style="fill:#d38d5f;stroke-width:0.0442196"
       d="m 48.420432,90.977713 c -1.047268,-0.04333 -1.692415,-0.102838 -2.653174,-0.244707 -3.676543,-0.542892 -6.958641,-1.761023 -9.131342,-3.389045 -0.548284,-0.410834 -1.307689,-1.152039 -1.664201,-1.624319 -0.36919,-0.489073 -0.739352,-1.237231 -0.864192,-1.746673 -0.133733,-0.545735 -0.134016,-1.437149 -6.13e-4,-1.931309 0.378546,-1.402237 1.489411,-2.737527 3.214438,-3.863843 0.805551,-0.525965 1.853643,-1.061905 2.785805,-1.424515 0.707765,-0.27532 2.160053,-0.761951 2.275557,-0.762491 0.06176,-2.88e-4 0.221743,-0.02969 0.355507,-0.06535 0.133765,-0.03565 0.248345,-0.04985 0.254622,-0.03156 0.0063,0.01829 0.312627,0.490449 0.680777,1.049234 0.368149,0.558784 1.05749,1.622885 1.531868,2.364668 1.353896,2.117081 2.565827,3.98971 3.394429,5.24494 0.693209,1.050128 0.779874,1.163189 0.957556,1.249203 0.251099,0.121555 0.647695,0.125545 0.904159,0.0091 0.232975,-0.105782 0.222093,-0.08947 4.293803,-6.436911 1.201285,-1.872699 2.208376,-3.429969 2.237982,-3.460599 0.04315,-0.04464 0.16752,-0.02471 0.626687,0.100429 4.653855,1.268305 7.752297,3.588842 8.313487,6.226278 0.102067,0.479685 0.08397,1.22356 -0.04174,1.716003 -0.639023,2.503164 -3.764402,4.803654 -8.214592,6.046492 -2.851255,0.796291 -5.875975,1.11487 -9.256821,0.974976 z"
       id="path8553"
       transform="translate(0,952.36218)" />
    <path
       style="fill:#ffffff;stroke-width:0.0442196"
       d="m 49.172165,43.972254 c -0.957164,-0.09894 -1.875891,-0.331175 -2.697394,-0.681847 -2.909126,-1.241812 -4.929501,-3.874273 -5.395693,-7.030357 -0.09543,-0.646071 -0.09543,-1.874444 0,-2.520516 0.466688,-3.15944 2.482592,-5.784784 5.399309,-7.031607 2.007451,-0.858134 4.29544,-0.945096 6.395148,-0.243068 3.296418,1.102144 5.666226,4.021291 6.068035,7.47465 0.49794,4.279573 -2.054012,8.281699 -6.129938,9.613336 -1.202791,0.392961 -2.475947,0.539679 -3.639467,0.419409 z"
       id="path84"
       transform="translate(0,952.36218)" />
  </g>
</svg>
